<svg width="235" height="40" viewBox="0 0 235 40" fill="none" xmlns="http://www.w3.org/2000/svg">
<rect width="40" height="40" fill="#881B3A"/>
<path d="M7.44626 24C7.44626 19.1928 12.6142 19.2298 17.2653 21.4905C28.4668 26.9555 33.9997 22.8999 34 15H32.6619C32.4869 19.1219 30.3316 22.2326 19.8969 17.1638C12.4234 13.5339 5.77503 17.2595 6.00584 24H7.44626Z" fill="white"/>
<path d="M56.6484 20.7812L60.75 31.6797L64.8418 20.7812H68.0352V35H65.5742V30.3125L65.8184 24.043L61.6191 35H59.8516L55.6621 24.0527L55.9062 30.3125V35H53.4453V20.7812H56.6484ZM77.0488 35C76.9447 34.7982 76.8535 34.4694 76.7754 34.0137C76.0202 34.8014 75.0957 35.1953 74.002 35.1953C72.9408 35.1953 72.0749 34.8926 71.4043 34.2871C70.7337 33.6816 70.3984 32.9329 70.3984 32.041C70.3984 30.9147 70.8151 30.0521 71.6484 29.4531C72.4883 28.8477 73.6862 28.5449 75.2422 28.5449H76.6973V27.8516C76.6973 27.3047 76.5443 26.8685 76.2383 26.543C75.9323 26.2109 75.4668 26.0449 74.8418 26.0449C74.3014 26.0449 73.8587 26.1816 73.5137 26.4551C73.1686 26.722 72.9961 27.0638 72.9961 27.4805H70.623C70.623 26.901 70.8151 26.3607 71.1992 25.8594C71.5833 25.3516 72.1042 24.9544 72.7617 24.668C73.4258 24.3815 74.1647 24.2383 74.9785 24.2383C76.2155 24.2383 77.2018 24.5508 77.9375 25.1758C78.6732 25.7943 79.0508 26.6667 79.0703 27.793V32.5586C79.0703 33.5091 79.2038 34.2676 79.4707 34.834V35H77.0488ZM74.4414 33.291C74.9102 33.291 75.3496 33.1771 75.7598 32.9492C76.1764 32.7214 76.4889 32.4154 76.6973 32.0312V30.0391H75.418C74.5391 30.0391 73.8783 30.1921 73.4355 30.498C72.9928 30.804 72.7715 31.237 72.7715 31.7969C72.7715 32.2526 72.9212 32.6172 73.2207 32.8906C73.5267 33.1576 73.9336 33.291 74.4414 33.291ZM85.8965 33.3008C86.4889 33.3008 86.9805 33.1283 87.3711 32.7832C87.7617 32.4382 87.9701 32.0117 87.9961 31.5039H90.2324C90.2064 32.1615 90.0013 32.7767 89.6172 33.3496C89.2331 33.916 88.7122 34.3652 88.0547 34.6973C87.3971 35.0293 86.6875 35.1953 85.9258 35.1953C84.4479 35.1953 83.276 34.7168 82.4102 33.7598C81.5443 32.8027 81.1113 31.4811 81.1113 29.7949V29.5508C81.1113 27.9427 81.541 26.6569 82.4004 25.6934C83.2598 24.7233 84.4316 24.2383 85.916 24.2383C87.1725 24.2383 88.1947 24.6061 88.9824 25.3418C89.7767 26.071 90.1934 27.0312 90.2324 28.2227H87.9961C87.9701 27.6172 87.7617 27.1191 87.3711 26.7285C86.987 26.3379 86.4954 26.1426 85.8965 26.1426C85.1283 26.1426 84.5358 26.4225 84.1191 26.9824C83.7025 27.5358 83.4909 28.3789 83.4844 29.5117V29.8926C83.4844 31.0384 83.6895 31.8945 84.0996 32.4609C84.5163 33.0208 85.1152 33.3008 85.8965 33.3008ZM94.3633 25.5859C95.138 24.6875 96.1178 24.2383 97.3027 24.2383C99.5553 24.2383 100.698 25.5241 100.73 28.0957V35H98.3574V28.1836C98.3574 27.4544 98.1979 26.9401 97.8789 26.6406C97.5664 26.3346 97.1042 26.1816 96.4922 26.1816C95.5417 26.1816 94.832 26.6048 94.3633 27.4512V35H91.9902V20H94.3633V25.5859ZM105.662 35H103.289V24.4336H105.662V35ZM103.143 21.6895C103.143 21.3249 103.257 21.0221 103.484 20.7812C103.719 20.5404 104.051 20.4199 104.48 20.4199C104.91 20.4199 105.242 20.5404 105.477 20.7812C105.711 21.0221 105.828 21.3249 105.828 21.6895C105.828 22.0475 105.711 22.347 105.477 22.5879C105.242 22.8223 104.91 22.9395 104.48 22.9395C104.051 22.9395 103.719 22.8223 103.484 22.5879C103.257 22.347 103.143 22.0475 103.143 21.6895ZM110.457 24.4336L110.525 25.6543C111.307 24.7103 112.332 24.2383 113.602 24.2383C115.802 24.2383 116.922 25.498 116.961 28.0176V35H114.588V28.1543C114.588 27.4837 114.441 26.9889 114.148 26.6699C113.862 26.3444 113.39 26.1816 112.732 26.1816C111.775 26.1816 111.062 26.6146 110.594 27.4805V35H108.221V24.4336H110.457ZM124.041 35.1953C122.537 35.1953 121.316 34.7233 120.379 33.7793C119.448 32.8288 118.982 31.5658 118.982 29.9902V29.6973C118.982 28.6426 119.184 27.7018 119.588 26.875C119.998 26.0417 120.571 25.3939 121.307 24.9316C122.042 24.4694 122.863 24.2383 123.768 24.2383C125.206 24.2383 126.316 24.6973 127.098 25.6152C127.885 26.5332 128.279 27.832 128.279 29.5117V30.4688H121.375C121.447 31.3411 121.736 32.0312 122.244 32.5391C122.758 33.0469 123.403 33.3008 124.178 33.3008C125.265 33.3008 126.15 32.8613 126.834 31.9824L128.113 33.2031C127.69 33.8346 127.124 34.3262 126.414 34.6777C125.711 35.0228 124.92 35.1953 124.041 35.1953ZM123.758 26.1426C123.107 26.1426 122.579 26.3704 122.176 26.8262C121.779 27.2819 121.525 27.9167 121.414 28.7305H125.936V28.5547C125.883 27.7604 125.672 27.1615 125.301 26.7578C124.93 26.3477 124.415 26.1426 123.758 26.1426ZM145.027 22.7734H140.594V35H138.143V22.7734H133.748V20.7812H145.027V22.7734ZM151.561 26.6016C151.248 26.5495 150.926 26.5234 150.594 26.5234C149.507 26.5234 148.774 26.9401 148.396 27.7734V35H146.023V24.4336H148.289L148.348 25.6152C148.921 24.6973 149.715 24.2383 150.73 24.2383C151.069 24.2383 151.349 24.2839 151.57 24.375L151.561 26.6016ZM159.08 35C158.976 34.7982 158.885 34.4694 158.807 34.0137C158.051 34.8014 157.127 35.1953 156.033 35.1953C154.972 35.1953 154.106 34.8926 153.436 34.2871C152.765 33.6816 152.43 32.9329 152.43 32.041C152.43 30.9147 152.846 30.0521 153.68 29.4531C154.52 28.8477 155.717 28.5449 157.273 28.5449H158.729V27.8516C158.729 27.3047 158.576 26.8685 158.27 26.543C157.964 26.2109 157.498 26.0449 156.873 26.0449C156.333 26.0449 155.89 26.1816 155.545 26.4551C155.2 26.722 155.027 27.0638 155.027 27.4805H152.654C152.654 26.901 152.846 26.3607 153.23 25.8594C153.615 25.3516 154.135 24.9544 154.793 24.668C155.457 24.3815 156.196 24.2383 157.01 24.2383C158.247 24.2383 159.233 24.5508 159.969 25.1758C160.704 25.7943 161.082 26.6667 161.102 27.793V32.5586C161.102 33.5091 161.235 34.2676 161.502 34.834V35H159.08ZM156.473 33.291C156.941 33.291 157.381 33.1771 157.791 32.9492C158.208 32.7214 158.52 32.4154 158.729 32.0312V30.0391H157.449C156.57 30.0391 155.91 30.1921 155.467 30.498C155.024 30.804 154.803 31.237 154.803 31.7969C154.803 32.2526 154.952 32.6172 155.252 32.8906C155.558 33.1576 155.965 33.291 156.473 33.291ZM165.789 24.4336L165.857 25.6543C166.639 24.7103 167.664 24.2383 168.934 24.2383C171.134 24.2383 172.254 25.498 172.293 28.0176V35H169.92V28.1543C169.92 27.4837 169.773 26.9889 169.48 26.6699C169.194 26.3444 168.722 26.1816 168.064 26.1816C167.107 26.1816 166.395 26.6146 165.926 27.4805V35H163.553V24.4336H165.789ZM180.643 32.1289C180.643 31.7057 180.467 31.3835 180.115 31.1621C179.77 30.9408 179.194 30.7454 178.387 30.5762C177.579 30.4069 176.906 30.1921 176.365 29.9316C175.18 29.3587 174.588 28.5286 174.588 27.4414C174.588 26.5299 174.972 25.7682 175.74 25.1562C176.508 24.5443 177.485 24.2383 178.67 24.2383C179.933 24.2383 180.952 24.5508 181.727 25.1758C182.508 25.8008 182.898 26.6113 182.898 27.6074H180.525C180.525 27.1517 180.356 26.7741 180.018 26.4746C179.679 26.1686 179.23 26.0156 178.67 26.0156C178.149 26.0156 177.723 26.1361 177.391 26.377C177.065 26.6178 176.902 26.9401 176.902 27.3438C176.902 27.7083 177.055 27.9915 177.361 28.1934C177.667 28.3952 178.286 28.6003 179.217 28.8086C180.148 29.0104 180.877 29.2546 181.404 29.541C181.938 29.821 182.332 30.1595 182.586 30.5566C182.846 30.9538 182.977 31.4355 182.977 32.002C182.977 32.9525 182.583 33.724 181.795 34.3164C181.007 34.9023 179.975 35.1953 178.699 35.1953C177.833 35.1953 177.062 35.0391 176.385 34.7266C175.708 34.4141 175.18 33.9844 174.803 33.4375C174.425 32.8906 174.236 32.3014 174.236 31.6699H176.541C176.574 32.2298 176.785 32.6628 177.176 32.9688C177.566 33.2682 178.084 33.418 178.729 33.418C179.354 33.418 179.829 33.3008 180.154 33.0664C180.48 32.8255 180.643 32.513 180.643 32.1289ZM187.576 35H185.203V20H187.576V35ZM196.482 35C196.378 34.7982 196.287 34.4694 196.209 34.0137C195.454 34.8014 194.529 35.1953 193.436 35.1953C192.374 35.1953 191.508 34.8926 190.838 34.2871C190.167 33.6816 189.832 32.9329 189.832 32.041C189.832 30.9147 190.249 30.0521 191.082 29.4531C191.922 28.8477 193.12 28.5449 194.676 28.5449H196.131V27.8516C196.131 27.3047 195.978 26.8685 195.672 26.543C195.366 26.2109 194.9 26.0449 194.275 26.0449C193.735 26.0449 193.292 26.1816 192.947 26.4551C192.602 26.722 192.43 27.0638 192.43 27.4805H190.057C190.057 26.901 190.249 26.3607 190.633 25.8594C191.017 25.3516 191.538 24.9544 192.195 24.668C192.859 24.3815 193.598 24.2383 194.412 24.2383C195.649 24.2383 196.635 24.5508 197.371 25.1758C198.107 25.7943 198.484 26.6667 198.504 27.793V32.5586C198.504 33.5091 198.637 34.2676 198.904 34.834V35H196.482ZM193.875 33.291C194.344 33.291 194.783 33.1771 195.193 32.9492C195.61 32.7214 195.923 32.4154 196.131 32.0312V30.0391H194.852C193.973 30.0391 193.312 30.1921 192.869 30.498C192.426 30.804 192.205 31.237 192.205 31.7969C192.205 32.2526 192.355 32.6172 192.654 32.8906C192.96 33.1576 193.367 33.291 193.875 33.291ZM203.963 21.8652V24.4336H205.828V26.1914H203.963V32.0898C203.963 32.4935 204.041 32.7865 204.197 32.9688C204.36 33.1445 204.646 33.2324 205.057 33.2324C205.33 33.2324 205.607 33.1999 205.887 33.1348V34.9707C205.346 35.1204 204.826 35.1953 204.324 35.1953C202.501 35.1953 201.59 34.1895 201.59 32.1777V26.1914H199.852V24.4336H201.59V21.8652H203.963ZM210.174 35H207.801V24.4336H210.174V35ZM207.654 21.6895C207.654 21.3249 207.768 21.0221 207.996 20.7812C208.23 20.5404 208.562 20.4199 208.992 20.4199C209.422 20.4199 209.754 20.5404 209.988 20.7812C210.223 21.0221 210.34 21.3249 210.34 21.6895C210.34 22.0475 210.223 22.347 209.988 22.5879C209.754 22.8223 209.422 22.9395 208.992 22.9395C208.562 22.9395 208.23 22.8223 207.996 22.5879C207.768 22.347 207.654 22.0475 207.654 21.6895ZM212.322 29.6191C212.322 28.584 212.527 27.653 212.938 26.8262C213.348 25.9928 213.924 25.3548 214.666 24.9121C215.408 24.4629 216.261 24.2383 217.225 24.2383C218.65 24.2383 219.806 24.6973 220.691 25.6152C221.583 26.5332 222.065 27.7507 222.137 29.2676L222.146 29.8242C222.146 30.8659 221.945 31.7969 221.541 32.6172C221.144 33.4375 220.571 34.0723 219.822 34.5215C219.08 34.9707 218.221 35.1953 217.244 35.1953C215.753 35.1953 214.559 34.7005 213.66 33.7109C212.768 32.7148 212.322 31.39 212.322 29.7363V29.6191ZM214.695 29.8242C214.695 30.9115 214.92 31.7643 215.369 32.3828C215.818 32.9948 216.443 33.3008 217.244 33.3008C218.045 33.3008 218.667 32.9883 219.109 32.3633C219.559 31.7383 219.783 30.8236 219.783 29.6191C219.783 28.5514 219.552 27.7051 219.09 27.0801C218.634 26.4551 218.012 26.1426 217.225 26.1426C216.45 26.1426 215.835 26.4518 215.379 27.0703C214.923 27.6823 214.695 28.6003 214.695 29.8242ZM226.355 24.4336L226.424 25.6543C227.205 24.7103 228.23 24.2383 229.5 24.2383C231.701 24.2383 232.82 25.498 232.859 28.0176V35H230.486V28.1543C230.486 27.4837 230.34 26.9889 230.047 26.6699C229.76 26.3444 229.288 26.1816 228.631 26.1816C227.674 26.1816 226.961 26.6146 226.492 27.4805V35H224.119V24.4336H226.355Z" fill="#1F2933"/>
<path d="M59.1836 4.89258H56.5703V12H54.8125V4.89258H52.2344V3.46875H59.1836V4.89258ZM63.0605 12H61.3027V3.46875H63.0605V12ZM67.4531 10.5879H71.1855V12H65.6953V3.46875H67.4531V10.5879ZM73.1992 12V3.46875H75.8242C76.5742 3.46875 77.2441 3.63867 77.834 3.97852C78.4277 4.31445 78.8906 4.79492 79.2227 5.41992C79.5547 6.04102 79.7207 6.74805 79.7207 7.54102V7.93359C79.7207 8.72656 79.5566 9.43164 79.2285 10.0488C78.9043 10.666 78.4453 11.1445 77.8516 11.4844C77.2578 11.8242 76.5879 11.9961 75.8418 12H73.1992ZM74.957 4.89258V10.5879H75.8066C76.4941 10.5879 77.0195 10.3633 77.3828 9.91406C77.7461 9.46484 77.9316 8.82227 77.9395 7.98633V7.53516C77.9395 6.66797 77.7598 6.01172 77.4004 5.56641C77.041 5.11719 76.5156 4.89258 75.8242 4.89258H74.957ZM87.1367 8.30273H83.7617V10.5879H87.7227V12H82.0039V3.46875H87.7109V4.89258H83.7617V6.92578H87.1367V8.30273Z" fill="#616E7C"/>
</svg>
